<svg xmlns="http://www.w3.org/2000/svg" width="268" height="142" viewBox="0 0 268 142" role="img" aria-labelledby="title desc">
  <title id="title">Logotipo UP</title>
  <desc id="desc">Logotipo da UP com fundo cinza e assinatura urbanizadora paranoazinho.</desc>
  <rect width="268" height="142" fill="#d3d3d3"/>

  <g fill="none" stroke-linecap="round" stroke-width="8">
    <path d="M28 74c8 4 11 11 11 19" stroke="#08A6AE"/>
    <path d="M47 55c8 4 11 11 11 19" stroke="#56626A"/>
    <path d="M66 69c-8 4-11 11-11 19" stroke="#F58A2B"/>
    <path d="M36 42c8 4 19 4 27 0" stroke="#56626A"/>
    <path d="M65 50c-8 4-11 11-11 19" stroke="#F58A2B"/>
  </g>

  <g fill="#4B5660">
    <path d="M88 32h6c12 0 21 9 21 21v52c0 12-9 21-21 21h-6z"/>
    <path d="M134 32h42c20 0 33 12 33 33 0 20-13 33-33 33h-20v26c0 3-2 5-5 5h-17c-3 0-5-2-5-5V37c0-3 2-5 5-5zm22 22v24h18c8 0 13-5 13-12s-5-12-13-12z"/>
  </g>

  <text x="26" y="116" font-family="Instrument Sans, Arial, sans-serif" font-size="11" fill="#4B5660" letter-spacing="0">urbanizadora</text>
  <text x="170" y="116" font-family="Instrument Sans, Arial, sans-serif" font-size="11" fill="#4B5660" letter-spacing="0">paranoazinho</text>
</svg>
